<?xml version="1.0" encoding="utf-8"?>
<!-- Generator: Adobe Illustrator 16.0.2, SVG Export Plug-In . SVG Version: 6.00 Build 0)  -->
<!DOCTYPE svg PUBLIC "-//W3C//DTD SVG 1.1//EN" "http://www.w3.org/Graphics/SVG/1.1/DTD/svg11.dtd">
<svg version="1.1" id="Layer_1" xmlns="http://www.w3.org/2000/svg" xmlns:xlink="http://www.w3.org/1999/xlink" x="0px" y="0px"
	 width="500px" height="359px" viewBox="0 0 500 359" style="enable-background:new 0 0 500 359;" xml:space="preserve">
<style type="text/css">
<![CDATA[
	.st0{fill:#cecece;}
]]>
</style>
<polygon class="st0" points="227.829,175.82 247.472,156.175 267.116,175.82 247.472,203.601 "/>
<path class="st0" d="M129.416,50.923c-2.125,0-4.224,0.104-6.311,0.255l-0.002-0.026H13.963l14.602,31.309H62.65h62.824h5.068v0.029
	c29.81,0.604,53.878,25.023,53.878,54.976c0,30.331-24.675,55.005-55.004,55.005s-55.004-24.674-55.004-55.005
	c0-13.782,5.106-26.386,13.511-36.048H50.769c-5.054,10.983-7.895,23.187-7.895,36.048c0,47.721,38.822,86.543,86.542,86.543
	c47.72,0,86.542-38.822,86.542-86.543C215.958,89.745,177.136,50.923,129.416,50.923"/>
<path class="st0" d="M368.057,50.923c2.125,0,4.225,0.104,6.312,0.255l0.002-0.026h109.14l-14.602,31.309h-34.085h-62.824h-5.067
	v0.029c-29.811,0.604-53.879,25.023-53.879,54.976c0,30.331,24.676,55.005,55.004,55.005c30.33,0,55.004-24.674,55.004-55.005
	c0-13.782-5.105-26.386-13.51-36.048h37.153c5.054,10.983,7.896,23.187,7.896,36.048c0,47.721-38.822,86.543-86.543,86.543
	c-47.72,0-86.541-38.822-86.541-86.543C281.516,89.745,320.337,50.923,368.057,50.923"/>
<path class="st0" d="M69.348,293.168c-4.264-2.258-7.65-5.346-10.158-9.265c-2.54-3.951-3.81-8.371-3.81-13.263
	c0-3.668,0.737-7.085,2.21-10.253c1.474-3.166,3.496-5.909,6.067-8.229c2.603-2.353,5.565-4.155,8.889-5.409
	c3.386-1.254,6.85-1.881,10.393-1.881c3.575,0,7.054,0.627,10.441,1.881c3.292,1.191,6.255,2.979,8.888,5.362
	c2.602,2.382,4.624,5.141,6.067,8.275c1.473,3.168,2.211,6.585,2.211,10.253c0,3.731-0.722,7.148-2.164,10.252
	c-1.442,3.136-3.48,5.91-6.114,8.324c-2.665,2.383-5.628,4.187-8.888,5.408c-3.292,1.286-6.773,1.928-10.441,1.928
	C78.143,296.553,73.611,295.425,69.348,293.168 M74.145,279.294c2.476,2.414,5.408,3.621,8.794,3.621
	c3.417,0,6.365-1.207,8.842-3.621c2.508-2.414,3.762-5.298,3.762-8.653c0-2.194-0.58-4.217-1.74-6.066
	c-1.16-1.85-2.712-3.323-4.656-4.42c-1.913-1.099-3.982-1.647-6.208-1.647c-2.163,0-4.217,0.549-6.161,1.647
	c-1.944,1.097-3.496,2.57-4.655,4.42c-1.161,1.85-1.741,3.872-1.741,6.066C70.382,273.996,71.636,276.88,74.145,279.294"/>
<path class="st0" d="M142.335,276.049v-29.158h15.096v29.158c0.251,4.421,2.147,6.693,5.691,6.818h0.846
	c3.825-0.125,5.738-2.773,5.738-7.947v-28.029h15.049v28.029c0,13.639-6.929,20.834-20.787,21.586h-0.846
	c-5.519-0.313-9.939-1.629-13.262-3.95c-3.293,2.321-7.698,3.637-13.215,3.95h-0.847c-13.858-0.752-20.787-7.947-20.787-21.586
	v-28.029h15.049v28.029c0,5.174,1.912,7.822,5.738,7.947h0.847C140.187,282.742,142.084,280.47,142.335,276.049"/>
<polygon class="st0" points="189.08,228.268 204.082,228.221 204.082,294.907 189.08,295.096 "/>
<path class="st0" d="M249.733,248.464h2.606c5.573,0,10.785,2.462,15.635,7.384c3.765,4.584,5.646,9.218,5.646,13.897v2.316
	c0,0.821-0.097,1.834-0.289,3.041c0.192,0.675,0.289,1.254,0.289,1.737v18.529c0,6.587-3.089,12.428-9.265,17.519
	c-4.32,2.702-8.326,4.053-12.017,4.053h-0.868c-2.993-0.313-4.489-1.809-4.489-4.488c0-1.809,0.965-3.111,2.895-3.907
	c0.797-0.268,2.533-0.557,5.213-0.869c2.919-1.063,5.042-2.511,6.37-4.344c2.219-2.438,3.33-5.188,3.33-8.252v-6.225
	c-4.199,2.992-8.351,4.488-12.451,4.488h-2.317c-5.791,0-11.244-2.702-16.358-8.108c-3.282-4.607-4.922-8.951-4.922-13.029v-2.605
	c0-5.067,2.267-10.085,6.804-15.056C240.419,250.491,245.148,248.464,249.733,248.464 M237.427,270.903
	c0,4.175,1.834,7.794,5.501,10.858c2.462,1.834,5.019,2.75,7.673,2.75h1.159c4.874,0,8.782-2.558,11.727-7.672
	c0.869-1.762,1.304-3.644,1.304-5.646v-0.579c0-5.019-2.462-8.976-7.384-11.871c-2.244-1.062-4.32-1.593-6.227-1.593
	c-4.681,0-8.59,2.22-11.726,6.659C238.102,266.367,237.427,268.732,237.427,270.903"/>
<path class="st0" d="M297.365,247.74h1.159c2.991,0.313,4.487,1.81,4.487,4.487c0,1.811-0.965,3.113-2.896,3.909l-5.646,1.014
	c-3.644,1.375-6.346,3.787-8.107,7.238c-0.773,1.955-1.158,3.692-1.158,5.212v16.214c0,3.065-0.628,4.947-1.882,5.646
	c-0.797,0.58-1.714,0.869-2.751,0.869c-2.413,0-3.813-1.496-4.197-4.488v-18.965c0-5.042,2.266-10.063,6.803-15.056
	C288.051,249.767,292.78,247.74,297.365,247.74"/>
<path class="st0" d="M326.612,247.45h2.606c5.573,0,10.785,2.462,15.635,7.384c3.765,4.584,5.646,9.217,5.646,13.898v2.315
	c0,5.526-2.462,10.738-7.384,15.637c-4.608,3.764-9.242,5.646-13.897,5.646h-2.316c-5.791,0-11.244-2.702-16.36-8.107
	c-3.28-4.608-4.922-8.951-4.922-13.029v-2.606c0-5.066,2.269-10.085,6.806-15.056C317.299,249.478,322.027,247.45,326.612,247.45
	 M314.307,269.891c0,4.175,1.834,7.794,5.502,10.857c2.461,1.834,5.019,2.75,7.672,2.75h1.158c4.873,0,8.783-2.557,11.728-7.672
	c0.868-1.761,1.302-3.643,1.302-5.647v-0.577c0-5.02-2.461-8.977-7.383-11.871c-2.244-1.063-4.318-1.594-6.225-1.594
	c-4.682,0-8.59,2.221-11.727,6.659C314.982,265.354,314.307,267.719,314.307,269.891"/>
<path class="st0" d="M362.735,288.131c-1.423-1.254-2.194-1.882-2.315-1.882c-4.729-5.38-7.095-10.833-7.095-16.359v-18.965
	c0.796-2.316,2.003-3.474,3.62-3.474h1.881c2.124,0.771,3.186,2.22,3.186,4.343v14.767c0,4.271,0.724,7.601,2.172,9.988
	c3.113,4.827,6.973,7.24,11.582,7.24c3.426,0,6.562-1.448,9.41-4.344c2.896-2.727,4.343-7.263,4.343-13.608v-13.898
	c0.386-2.991,1.784-4.487,4.198-4.487h0.869c2.315,0.796,3.475,2.003,3.475,3.619v19.978c0,1.811-0.484,3.934-1.448,6.37
	c-0.821,2.92-2.992,6.153-6.515,9.7c-4.514,3.474-8.422,5.212-11.727,5.212h-5.212C369.805,292.112,366.33,290.713,362.735,288.131"
	/>
<path class="st0" d="M423.977,247.232h2.605c5.574,0,10.785,2.463,15.635,7.385c3.764,4.585,5.646,9.218,5.646,13.897v2.317
	c0,5.524-2.461,10.737-7.385,15.635c-4.607,3.764-9.24,5.646-13.896,5.646h-2.316c-4.103,0-8.252-1.496-12.451-4.488h-0.145V306.3
	c-0.313,2.992-1.809,4.488-4.488,4.488c-1.809,0-3.112-0.965-3.908-2.896c-0.289-0.579-0.435-2.269-0.435-5.066v-29.1
	c0-6.418,0.628-10.713,1.884-12.884c2.121-5.14,5.982-9.097,11.58-11.872C419.536,247.813,422.094,247.232,423.977,247.232
	 M411.67,269.673c0,4.175,1.834,7.794,5.501,10.858c2.462,1.834,5.019,2.75,7.673,2.75h1.158c4.874,0,8.783-2.558,11.727-7.673
	c0.869-1.761,1.304-3.643,1.304-5.646v-0.579c0-5.019-2.461-8.976-7.384-11.871c-2.244-1.062-4.319-1.593-6.225-1.593
	c-4.681,0-8.591,2.22-11.727,6.659C412.346,265.137,411.67,267.502,411.67,269.673"/>
</svg>
